<svg width="159" height="29" viewBox="0 0 159 29" fill="none" xmlns="http://www.w3.org/2000/svg">
<path d="M45.5642 7.825H48.1282V24.9312H45.5642V7.825ZM40.4361 7.825H53.2563V10.171H40.4361V7.825Z" fill="white"/>
<path d="M53.3797 11.2462H55.8738V24.9312H53.3797V11.2462ZM55.8738 17.7466L55.5242 15.7183C55.5242 15.2947 55.5708 14.806 55.664 14.2521C55.7728 13.6981 55.9826 13.1687 56.2934 12.6636C56.6197 12.1423 57.0937 11.7106 57.7153 11.3684C58.3524 11.0263 59.1915 10.8552 60.2327 10.8552V13.4945C59.3158 13.4945 58.5311 13.6248 57.8784 13.8855C57.2258 14.1462 56.7285 14.586 56.3866 15.2051C56.0448 15.8079 55.8738 16.6551 55.8738 17.7466Z" fill="white"/>
<path d="M65.9382 25.3223C65.0835 25.3223 64.3143 25.1593 63.6305 24.8335C62.9468 24.4914 62.4029 24.0026 61.9989 23.3673C61.6104 22.7319 61.4162 21.958 61.4162 21.0457C61.4162 19.9704 61.6648 19.1233 62.1621 18.5042C62.6593 17.8851 63.3197 17.4289 64.1433 17.1357C64.9669 16.8424 65.8605 16.6551 66.8239 16.5736C67.8029 16.4759 68.7663 16.4351 69.7143 16.4514V18.6264C67.7718 18.5612 66.3422 18.7323 65.4254 19.1396C64.5085 19.5306 64.0501 20.1334 64.0501 20.9479C64.0501 21.6485 64.2599 22.1698 64.6795 22.5119C65.1146 22.8378 65.7128 23.0007 66.4743 23.0007C67.0959 23.0007 67.6475 22.8704 68.1292 22.6097C68.6265 22.3327 69.015 21.9336 69.2947 21.4123C69.5744 20.8909 69.7143 20.2637 69.7143 19.5306V17.8932H72.2084V24.9312H69.7143V23.4161C69.3258 24.0189 68.813 24.4914 68.1758 24.8335C67.5387 25.1593 66.7928 25.3223 65.9382 25.3223ZM61.1131 16.3048C61.1131 15.3762 61.3307 14.4964 61.7658 13.6656C62.2009 12.8347 62.8458 12.1586 63.7005 11.6372C64.5551 11.1159 65.5885 10.8552 66.8006 10.8552C68.4789 10.8552 69.7687 11.3603 70.6699 12.3704C71.5712 13.3642 72.0763 14.7245 72.1851 16.4514H69.7143C69.6521 15.4576 69.3957 14.6838 68.9451 14.1299C68.51 13.5597 67.7951 13.2746 66.8006 13.2746C66.0547 13.2746 65.4564 13.413 65.0058 13.69C64.5707 13.967 64.2521 14.3417 64.0501 14.8141C63.8481 15.2703 63.7471 15.7672 63.7471 16.3048H61.1131Z" fill="white"/>
<path d="M86.72 19.1884C86.6734 20.3614 86.3937 21.4123 85.8809 22.3409C85.3836 23.2695 84.6844 24.0026 83.7831 24.5402C82.8818 25.0616 81.8173 25.3223 80.5897 25.3223C79.2378 25.3223 78.0645 25.0209 77.07 24.4181C76.0755 23.799 75.2985 22.9437 74.7391 21.8521C74.1952 20.7606 73.9232 19.5143 73.9232 18.1132C73.9232 16.6958 74.1952 15.4414 74.7391 14.3498C75.2985 13.2583 76.0755 12.403 77.07 11.7839C78.0645 11.1648 79.2378 10.8552 80.5897 10.8552C81.7707 10.8552 82.8118 11.1322 83.7131 11.6861C84.6144 12.2237 85.3215 12.9324 85.8343 13.8122C86.3471 14.6756 86.6268 15.6124 86.6734 16.6225H84.0162C83.9851 16.0523 83.8452 15.5147 83.5966 15.0096C83.348 14.5046 82.975 14.0891 82.4777 13.7633C81.996 13.4375 81.3667 13.2746 80.5897 13.2746C79.6729 13.2746 78.9114 13.4864 78.3054 13.9099C77.6993 14.3172 77.2409 14.8874 76.9301 15.6206C76.6349 16.3537 76.4873 17.1846 76.4873 18.1132C76.4873 19.0255 76.6349 19.8482 76.9301 20.5814C77.2409 21.2982 77.6993 21.8684 78.3054 22.292C78.9114 22.6993 79.6729 22.9029 80.5897 22.9029C81.3978 22.9029 82.0504 22.7319 82.5477 22.3897C83.0605 22.0313 83.4412 21.5752 83.6898 21.0212C83.9385 20.451 84.0783 19.8401 84.1094 19.1884H86.72Z" fill="white"/>
<path d="M90.5792 18.9685V16.7691H99.1337L98.1081 17.5267C98.1392 16.7447 98.0226 16.036 97.7585 15.4006C97.5098 14.749 97.1213 14.2276 96.593 13.8366C96.0646 13.4456 95.3964 13.2501 94.5884 13.2501C93.454 13.2501 92.5139 13.6167 91.768 14.3498C91.0376 15.0666 90.6413 16.0686 90.5792 17.3556H87.9452C88.054 16.0034 88.4036 14.8467 88.9941 13.8855C89.6002 12.908 90.3849 12.1586 91.3484 11.6372C92.3118 11.1159 93.3918 10.8552 94.5884 10.8552C95.4741 10.8552 96.3055 11.0345 97.0825 11.3929C97.8595 11.7513 98.5276 12.2808 99.0871 12.9813C99.6465 13.6819 100.058 14.5372 100.322 15.5472C100.602 16.541 100.68 17.6815 100.556 18.9685H90.5792ZM94.5884 25.3223C93.3452 25.3223 92.2419 25.0534 91.2785 24.5158C90.3305 23.9782 89.5691 23.2369 88.9941 22.292C88.4192 21.3308 88.0773 20.223 87.9685 18.9685H90.5792C90.7035 20.1415 91.092 21.0946 91.7446 21.8277C92.4128 22.5608 93.3608 22.9274 94.5884 22.9274C95.5052 22.9274 96.2278 22.7074 96.7561 22.2676C97.3 21.8114 97.6807 21.2575 97.8983 20.6058H100.556C100.338 21.5507 99.9651 22.3735 99.4367 23.074C98.9084 23.7745 98.2324 24.3285 97.4088 24.7358C96.5852 25.1268 95.6451 25.3223 94.5884 25.3223Z" fill="white"/>
<path d="M111.758 24.9312L103.39 7.825H106.21L114.555 24.9312H111.758ZM102.574 7.825H104.998V24.9312H102.574V7.825ZM112.946 7.825H115.394V24.9312H112.946V7.825Z" fill="url(#paint0_linear_11_42)"/>
<path d="M123.999 25.3223C122.647 25.3223 121.474 25.0209 120.479 24.4181C119.484 23.799 118.707 22.9437 118.148 21.8521C117.604 20.7606 117.332 19.5143 117.332 18.1132C117.332 16.6958 117.604 15.4414 118.148 14.3498C118.707 13.2583 119.484 12.403 120.479 11.7839C121.474 11.1648 122.647 10.8552 123.999 10.8552C125.351 10.8552 126.524 11.1648 127.518 11.7839C128.513 12.403 129.282 13.2583 129.826 14.3498C130.385 15.4414 130.665 16.6958 130.665 18.1132C130.665 19.5143 130.385 20.7606 129.826 21.8521C129.282 22.9437 128.513 23.799 127.518 24.4181C126.524 25.0209 125.351 25.3223 123.999 25.3223ZM123.999 22.9274C124.853 22.9274 125.584 22.7319 126.19 22.3409C126.796 21.9336 127.262 21.3715 127.588 20.6547C127.915 19.9216 128.078 19.0744 128.078 18.1132C128.078 17.1357 127.915 16.2804 127.588 15.5472C127.262 14.8141 126.796 14.2521 126.19 13.8611C125.584 13.4538 124.853 13.2501 123.999 13.2501C123.144 13.2501 122.406 13.4538 121.784 13.8611C121.178 14.2521 120.712 14.8141 120.386 15.5472C120.059 16.2804 119.896 17.1357 119.896 18.1132C119.896 19.0744 120.059 19.9216 120.386 20.6547C120.712 21.3715 121.178 21.9336 121.784 22.3409C122.406 22.7319 123.144 22.9274 123.999 22.9274Z" fill="url(#paint1_linear_11_42)"/>
<path d="M137.82 25.3223C136.623 25.3223 135.582 25.0209 134.697 24.4181C133.826 23.799 133.15 22.9437 132.669 21.8521C132.187 20.7606 131.946 19.5143 131.946 18.1132C131.946 16.6958 132.187 15.4414 132.669 14.3498C133.15 13.2583 133.826 12.403 134.697 11.7839C135.582 11.1648 136.623 10.8552 137.82 10.8552C138.815 10.8552 139.661 11.0752 140.361 11.5151C141.06 11.9549 141.612 12.5659 142.016 13.3479V22.8541C141.627 23.6035 141.091 24.2063 140.407 24.6624C139.724 25.1023 138.861 25.3223 137.82 25.3223ZM138.146 22.9274C139.017 22.9274 139.731 22.7237 140.291 22.3164C140.866 21.8929 141.293 21.3145 141.573 20.5814C141.868 19.8482 142.016 19.0255 142.016 18.1132C142.016 17.1846 141.868 16.3537 141.573 15.6206C141.293 14.8874 140.866 14.3091 140.291 13.8855C139.731 13.4619 139.017 13.2501 138.146 13.2501C137.4 13.2501 136.756 13.4538 136.212 13.8611C135.668 14.2521 135.248 14.8141 134.953 15.5472C134.658 16.2804 134.51 17.1357 134.51 18.1132C134.51 19.0744 134.658 19.9216 134.953 20.6547C135.248 21.3715 135.668 21.9336 136.212 22.3409C136.756 22.7319 137.4 22.9274 138.146 22.9274ZM142.016 24.9312V6.60312H144.51V24.9312H142.016Z" fill="url(#paint2_linear_11_42)"/>
<path d="M148.966 18.9685V16.7691H157.521L156.495 17.5267C156.526 16.7447 156.41 16.036 156.146 15.4006C155.897 14.749 155.508 14.2276 154.98 13.8366C154.452 13.4456 153.784 13.2501 152.975 13.2501C151.841 13.2501 150.901 13.6167 150.155 14.3498C149.425 15.0666 149.028 16.0686 148.966 17.3556H146.332C146.441 16.0034 146.791 14.8467 147.381 13.8855C147.987 12.908 148.772 12.1586 149.735 11.6372C150.699 11.1159 151.779 10.8552 152.975 10.8552C153.861 10.8552 154.693 11.0345 155.47 11.3929C156.247 11.7513 156.915 12.2808 157.474 12.9813C158.034 13.6819 158.445 14.5372 158.71 15.5472C158.989 16.541 159.067 17.6815 158.943 18.9685H148.966ZM152.975 25.3223C151.732 25.3223 150.629 25.0534 149.666 24.5158C148.718 23.9782 147.956 23.2369 147.381 22.292C146.806 21.3308 146.464 20.223 146.356 18.9685H148.966C149.091 20.1415 149.479 21.0946 150.132 21.8277C150.8 22.5608 151.748 22.9274 152.975 22.9274C153.892 22.9274 154.615 22.7074 155.143 22.2676C155.687 21.8114 156.068 21.2575 156.285 20.6058H158.943C158.725 21.5507 158.352 22.3735 157.824 23.074C157.295 23.7745 156.619 24.3285 155.796 24.7358C154.972 25.1268 154.032 25.3223 152.975 25.3223Z" fill="url(#paint3_linear_11_42)"/>
<path fill-rule="evenodd" clip-rule="evenodd" d="M20.5008 5.375C23.2618 5.375 25.5 7.61358 25.5 10.375C25.5 13.1364 23.2618 15.375 20.5008 15.375C18.822 15.375 17.9106 15.2695 17.0039 14C13.0373 15.5683 10.8479 18.8263 10.0039 21C10.5 22 10.6273 22.2947 10.6273 23.6875C10.6273 26.6215 8.24918 29 5.31562 29C2.38206 29 0.00393677 26.6215 0.00393677 23.6875C0.00393677 20.7535 2.38206 18.375 5.31562 18.375C6.07185 18.375 6.79105 18.5333 7.44224 18.8182C8.97365 15.1249 12.9193 12.5049 15.5827 11.2766C15.5295 10.9841 15.5015 10.6828 15.5015 10.375C15.5015 7.61358 17.7398 5.375 20.5008 5.375ZM5.31562 21.6724C4.20289 21.6724 3.30079 22.5746 3.30079 23.6875C3.30079 24.8004 4.20289 25.7026 5.31562 25.7026C6.42835 25.7026 7.33044 24.8004 7.33044 23.6875C7.33044 22.5746 6.42835 21.6724 5.31562 21.6724ZM20.5008 8.47839C19.4535 8.47839 18.6045 9.32756 18.6045 10.375C18.6045 11.4224 19.4535 12.2716 20.5008 12.2716C21.548 12.2716 22.3971 11.4224 22.3971 10.375C22.3971 9.32756 21.548 8.47839 20.5008 8.47839Z" fill="url(#paint4_linear_11_42)"/>
<path d="M23.6214 0C27.4177 4.83195e-07 30.4953 3.07804 30.4953 6.875V22.125C30.4953 25.922 27.4177 29 23.6214 29H12.104C12.8408 28.1325 13.4065 27.1151 13.7491 26H22.9965C25.4123 26 27.3708 24.0412 27.3708 21.625V7.375C27.3708 4.95875 25.4123 3 22.9965 3H7.49884C5.08297 3 3.12452 4.95875 3.12452 7.375V15.3738C1.95557 15.733 0.894049 16.3376 0 17.1274V6.875C0 3.07804 3.07757 0 6.87394 0H23.6214Z" fill="url(#paint5_linear_11_42)"/>
<defs>
<linearGradient id="paint0_linear_11_42" x1="40.4361" y1="15.9627" x2="159" y2="15.9627" gradientUnits="userSpaceOnUse">
<stop stop-color="#5FB2FF"/>
<stop offset="1" stop-color="#606CFF"/>
</linearGradient>
<linearGradient id="paint1_linear_11_42" x1="40.4361" y1="15.9627" x2="159" y2="15.9627" gradientUnits="userSpaceOnUse">
<stop stop-color="#5FB2FF"/>
<stop offset="1" stop-color="#606CFF"/>
</linearGradient>
<linearGradient id="paint2_linear_11_42" x1="40.4361" y1="15.9627" x2="159" y2="15.9627" gradientUnits="userSpaceOnUse">
<stop stop-color="#5FB2FF"/>
<stop offset="1" stop-color="#606CFF"/>
</linearGradient>
<linearGradient id="paint3_linear_11_42" x1="40.4361" y1="15.9627" x2="159" y2="15.9627" gradientUnits="userSpaceOnUse">
<stop stop-color="#5FB2FF"/>
<stop offset="1" stop-color="#606CFF"/>
</linearGradient>
<linearGradient id="paint4_linear_11_42" x1="29.6829" y1="-2.6902e-07" x2="1.05786" y2="28.9956" gradientUnits="userSpaceOnUse">
<stop stop-color="#1A99FC"/>
<stop offset="1" stop-color="#5534FC"/>
</linearGradient>
<linearGradient id="paint5_linear_11_42" x1="29.6829" y1="-2.6902e-07" x2="1.05786" y2="28.9956" gradientUnits="userSpaceOnUse">
<stop stop-color="#1A99FC"/>
<stop offset="1" stop-color="#5534FC"/>
</linearGradient>
</defs>
</svg>
