<svg width="244" height="232" viewBox="0 0 244 232" fill="none" xmlns="http://www.w3.org/2000/svg">
<path fill-rule="evenodd" clip-rule="evenodd" d="M164 43C186.091 43 204 60.9086 204 83C204 105.091 186.091 123 164 123C150.568 123 138.683 116.379 131.429 106.223C99.691 118.769 80.4462 143.249 73.6934 160.639C80.7095 168.218 85 178.357 85 189.5C85 212.972 65.9721 232 42.5 232C19.0279 232 0 212.972 0 189.5C0 166.028 19.0279 147 42.5 147C48.5508 147 54.3053 148.267 59.5156 150.546C71.7687 120.999 103.339 100.039 124.649 90.2129C124.223 87.8732 124 85.4627 124 83C124 60.9086 141.909 43 164 43ZM42.5 173.379C33.5968 173.379 26.3789 180.597 26.3789 189.5C26.3789 198.403 33.5968 205.621 42.5 205.621C51.4032 205.621 58.6211 198.403 58.6211 189.5C58.6211 180.597 51.4032 173.379 42.5 173.379ZM164 67.8271C155.621 67.8271 148.827 74.6205 148.827 83C148.827 91.3795 155.621 98.1729 164 98.1729C172.379 98.1729 179.173 91.3795 179.173 83C179.173 74.6205 172.379 67.8271 164 67.8271Z" fill="url(#paint0_linear_204_25)"/>
<path d="M189 0C219.376 3.86556e-06 244 24.6243 244 55V177C244 207.376 219.376 232 189 232H96.8467C102.742 225.06 107.269 216.921 110.01 208H184C203.33 208 219 192.33 219 173V59C219 39.67 203.33 24 184 24H60C40.67 24 25 39.67 25 59V122.99C15.647 125.864 7.1535 130.7 0 137.02V55C0 24.6243 24.6243 0 55 0H189Z" fill="url(#paint1_linear_204_25)"/>
<defs>
<linearGradient id="paint0_linear_204_25" x1="237.5" y1="-5.51942e-06" x2="8.5" y2="232" gradientUnits="userSpaceOnUse">
<stop stop-color="#1A99FC"/>
<stop offset="1" stop-color="#5534FC"/>
</linearGradient>
<linearGradient id="paint1_linear_204_25" x1="237.5" y1="-5.51942e-06" x2="8.5" y2="232" gradientUnits="userSpaceOnUse">
<stop stop-color="#1A99FC"/>
<stop offset="1" stop-color="#5534FC"/>
</linearGradient>
</defs>
</svg>
